<?xml version="1.0" standalone="no"?>
<!DOCTYPE svg PUBLIC "-//W3C//DTD SVG 20010904//EN"
 "http://www.w3.org/TR/2001/REC-SVG-20010904/DTD/svg10.dtd">
<svg version="1.0" xmlns="http://www.w3.org/2000/svg"
 width="1138.000000pt" height="1120.000000pt" viewBox="0 0 1138.000000 1120.000000"
 preserveAspectRatio="xMidYMid meet">

<g transform="translate(0.000000,1120.000000) scale(0.100000,-0.100000)"
fill="#000000" stroke="none">
<path d="M0 5600 l0 -5600 5690 0 5690 0 0 5600 0 5600 -5690 0 -5690 0 0
-5600z m6900 4602 c0 -5 7 -60 15 -123 12 -92 13 -134 4 -219 -28 -272 -79
-461 -179 -665 -157 -319 -362 -540 -737 -794 -193 -131 -242 -207 -265 -413
-21 -189 22 -400 117 -577 48 -89 74 -111 131 -111 108 0 307 152 421 321 118
174 173 328 223 614 16 94 33 184 39 200 18 56 12 -221 -10 -440 -40 -412 -38
-505 17 -642 27 -67 89 -179 106 -189 5 -3 32 10 61 29 83 55 146 83 242 108
79 21 112 24 270 23 99 0 216 -6 260 -13 139 -21 362 -25 425 -7 190 55 214
59 345 59 133 1 207 -11 330 -52 100 -34 99 -37 55 119 -79 280 -202 501 -379
685 -120 125 -148 128 -476 50 -192 -46 -295 -36 -345 35 -59 82 -104 464 -65
550 30 67 128 117 325 165 194 47 345 42 502 -15 133 -49 201 -102 456 -358
131 -131 316 -311 412 -402 323 -302 532 -518 610 -629 129 -182 270 -491 270
-592 0 -49 -17 -74 -118 -177 -37 -37 -100 -104 -141 -148 -154 -165 -175
-186 -239 -235 -144 -109 -344 -191 -682 -278 -159 -41 -237 -50 -493 -57
-306 -7 -283 -1 -290 -77 -20 -208 -104 -357 -337 -602 -99 -105 -147 -163
-173 -213 -38 -73 -87 -249 -87 -315 0 -93 -69 -346 -123 -452 -46 -92 -116
-185 -201 -270 -150 -148 -304 -211 -548 -222 -71 -3 -128 -3 -128 0 0 4 46
28 103 55 542 257 773 617 712 1107 -9 72 -21 136 -28 143 -10 9 -39 10 -132
2 -66 -5 -130 -10 -142 -10 -44 0 -22 16 45 33 134 35 341 149 467 257 237
204 358 432 380 720 27 354 -154 572 -547 659 -291 65 -586 49 -967 -51 -63
-16 -131 -36 -150 -43 -51 -19 -190 -62 -226 -69 -42 -9 -83 -49 -89 -88 -3
-18 -10 -613 -16 -1322 -6 -709 -13 -1293 -16 -1298 -3 -4 -20 -8 -39 -8 -26
0 -35 5 -41 22 -4 12 -3 470 2 1018 5 547 9 1126 9 1286 l0 290 -28 42 c-34
52 -92 82 -257 134 -153 48 -288 81 -451 110 -167 30 -508 33 -639 5 -220 -47
-401 -126 -473 -207 -104 -116 -141 -237 -134 -435 8 -217 69 -387 207 -570
152 -203 354 -348 595 -430 44 -15 82 -30 85 -33 5 -5 -141 4 -222 15 -48 6
-48 5 -63 -31 -46 -109 -63 -326 -36 -461 62 -313 296 -572 692 -765 120 -58
122 -59 93 -71 -60 -23 -270 10 -404 63 -98 39 -190 101 -264 178 -188 197
-279 413 -301 720 -4 47 -13 113 -21 147 -26 117 -117 266 -245 400 -147 154
-246 306 -282 433 -9 30 -21 99 -28 153 l-12 97 -79 0 c-43 0 -122 -5 -176
-11 -192 -22 -447 24 -722 128 -268 102 -380 157 -479 237 -79 63 -441 442
-468 490 -52 92 75 411 264 659 97 128 226 266 408 437 256 240 377 353 435
406 35 32 100 93 145 134 76 72 142 133 245 227 160 147 299 203 500 203 110
0 206 -18 350 -66 95 -31 120 -44 165 -85 72 -67 86 -101 92 -223 6 -121 -11
-205 -62 -312 -31 -65 -40 -75 -87 -98 -81 -40 -161 -36 -388 19 -248 61 -266
58 -380 -62 -186 -194 -320 -436 -400 -721 -12 -45 -20 -85 -16 -89 3 -4 30
-1 59 6 205 48 241 53 367 48 121 -5 169 -14 314 -59 76 -23 141 -23 516 2
346 23 523 -11 695 -134 42 -30 58 -36 102 -36 64 0 91 10 137 51 92 80 130
245 90 387 -23 84 -31 104 -105 257 -94 195 -102 222 -102 335 0 74 5 107 22
150 19 49 22 73 21 231 0 196 11 270 60 397 115 298 454 573 915 744 125 46
197 69 201 65 2 -2 -5 -25 -16 -50 -51 -115 -30 -212 58 -268 93 -59 198 -33
307 76 107 106 168 262 221 563 9 56 21 102 26 102 4 0 8 -4 8 -8z m-1622
-4177 c2 -159 0 -350 -3 -424 l-7 -133 -32 6 c-17 3 -65 22 -106 43 -185 89
-331 321 -318 503 6 79 50 179 101 228 57 56 115 72 247 69 l115 -2 3 -290z
m1482 274 c162 -40 244 -245 179 -451 -30 -95 -108 -210 -182 -269 -60 -48
-180 -114 -230 -125 l-28 -6 6 418 c4 231 8 424 10 431 7 22 162 23 245 2z
m-1502 -1661 c3 -370 9 -346 -77 -308 -192 88 -314 316 -256 481 35 99 147
161 280 156 l50 -2 3 -327z m1424 310 c55 -16 133 -89 153 -143 60 -157 -60
-387 -251 -481 -40 -20 -77 -33 -83 -30 -15 10 -15 619 -1 647 9 16 22 19 77
19 36 0 84 -5 105 -12z m-3242 -1279 c251 -50 391 -318 319 -610 -38 -158 -82
-246 -154 -312 -32 -29 -33 -26 19 -91 121 -153 110 -467 -24 -674 -85 -132
-217 -238 -369 -295 -53 -20 -77 -22 -520 -25 -255 -2 -469 -1 -476 2 -9 3
-10 18 -4 58 4 29 20 127 34 218 14 91 34 224 44 295 11 72 32 207 46 300 15
94 33 213 40 265 8 52 21 140 30 195 9 55 20 129 25 165 38 255 79 510 83 517
8 12 843 5 907 -8z m1579 -10 c116 -26 226 -116 284 -230 37 -73 60 -189 52
-259 -20 -176 -74 -325 -146 -404 -27 -30 -49 -59 -49 -65 0 -7 11 -24 25 -39
56 -59 105 -205 105 -312 0 -82 -37 -231 -79 -315 -86 -175 -267 -324 -446
-370 -83 -21 -965 -23 -965 -1 0 7 9 73 21 147 33 212 38 248 53 349 8 52 22
142 31 200 9 58 25 161 35 230 11 69 27 172 36 230 25 164 49 325 88 585 20
132 38 246 41 253 6 15 846 17 914 1z m1161 -39 c4 -14 10 -51 13 -82 l7 -58
-182 -2 -183 -3 -12 -65 c-22 -121 -36 -110 142 -110 123 0 157 -3 161 -14 3
-7 -8 -47 -23 -87 l-28 -74 -148 -3 c-142 -2 -147 -3 -152 -25 -16 -71 -41
-278 -38 -312 l4 -40 -78 -47 c-43 -25 -80 -45 -84 -43 -3 2 -14 32 -24 65
-19 63 -16 118 15 295 5 28 16 97 25 155 8 58 20 132 25 165 5 33 16 107 25
165 9 58 19 115 21 128 l4 22 252 -2 252 -3 6 -25z m277 -35 c-4 -36 -9 -70
-12 -75 -4 -6 -45 -10 -92 -10 l-85 0 6 58 c12 97 6 92 103 92 l86 0 -6 -65z
m318 18 c-2 -16 -9 -58 -16 -95 -6 -37 -9 -74 -6 -82 4 -10 24 -16 59 -18 l53
-3 -3 -40 c-2 -22 -7 -56 -11 -75 l-7 -35 -62 -3 c-60 -3 -61 -3 -67 -35 -54
-302 -53 -307 50 -307 36 0 65 -2 65 -4 0 -3 -23 -41 -51 -85 l-52 -81 -51 0
c-69 0 -122 32 -153 89 -29 55 -30 130 -4 291 10 63 17 118 14 123 -2 4 -14 7
-25 7 -20 0 -21 4 -15 63 8 82 14 95 45 99 23 3 27 10 37 56 10 53 11 54 95
107 99 62 111 66 105 28z m-346 -199 c2 -2 -1 -28 -7 -56 -6 -29 -18 -107 -28
-173 -10 -66 -29 -190 -43 -275 l-26 -155 -89 -3 -88 -3 6 48 c8 56 37 245 66
423 11 69 20 133 20 142 0 9 4 28 10 43 10 25 10 25 92 19 46 -4 85 -8 87 -10z
m1589 -10 c53 -22 111 -82 123 -127 30 -113 -71 -246 -260 -342 -51 -25 -54
-28 -36 -41 12 -9 45 -14 92 -14 43 0 73 -4 73 -10 0 -6 -16 -42 -36 -81 l-35
-71 -102 4 c-96 3 -105 5 -150 37 -96 66 -143 178 -135 321 6 106 31 167 96
233 101 104 251 141 370 91z m-630 -10 c93 -46 118 -110 97 -246 -45 -300 -59
-384 -68 -395 -6 -9 -37 -13 -88 -13 l-79 0 0 33 c0 32 13 122 45 307 27 153
20 166 -87 173 -37 2 -71 1 -76 -2 -5 -3 -14 -42 -21 -86 -46 -304 -64 -401
-75 -410 -7 -5 -48 -8 -91 -7 l-77 4 6 41 c33 226 96 609 101 617 4 6 72 10
184 10 170 0 179 -1 229 -26z m1194 -42 c-2 -29 -7 -65 -11 -80 -8 -27 -8 -27
-96 -27 -64 0 -89 -4 -93 -13 -2 -7 22 -52 54 -100 33 -48 69 -104 81 -126 66
-112 -16 -247 -164 -270 -23 -3 -88 -3 -144 1 l-102 6 7 59 c12 115 4 108 116
108 137 0 139 4 56 130 -96 147 -109 174 -101 222 9 49 56 105 110 130 33 15
61 17 165 15 l125 -2 -3 -53z m446 49 c11 -6 12 -23 7 -67 -12 -94 -12 -94
-115 -94 -52 0 -90 -4 -90 -10 0 -5 34 -61 76 -125 41 -63 80 -129 86 -145 23
-66 -26 -161 -104 -202 -37 -19 -62 -23 -180 -26 -162 -5 -157 -8 -136 101
l13 72 105 5 c83 4 105 8 107 20 2 8 -33 71 -77 140 -70 109 -80 131 -80 170
0 74 52 134 140 161 35 10 232 11 248 0z m-2942 -763 c9 -14 33 -126 34 -155
0 -22 -1 -22 -215 -25 -187 -3 -217 -5 -232 -20 -16 -16 -16 -20 -1 -51 9 -19
48 -63 87 -98 39 -35 71 -66 71 -70 0 -3 -50 -37 -111 -75 -116 -71 -182 -134
-177 -168 2 -10 16 -28 31 -40 25 -19 45 -21 177 -24 172 -4 149 -22 174 138
8 52 20 128 26 168 l12 73 121 -3 122 -3 -3 -30 c-1 -16 -7 -58 -13 -92 -10
-56 -14 -63 -35 -63 -12 0 -25 -4 -28 -9 -5 -7 -56 -325 -56 -345 0 -3 -124
-6 -275 -6 -304 0 -322 3 -376 62 -47 49 -62 87 -63 153 0 79 26 127 116 215
l70 69 -25 30 c-109 130 -49 302 126 362 43 15 86 18 244 19 135 0 194 -3 199
-12z m1222 -90 l3 -88 -181 0 c-160 0 -185 -2 -219 -20 -79 -40 -121 -116
-121 -220 0 -157 105 -287 252 -314 45 -8 52 3 62 86 3 31 9 63 12 71 8 21
-30 56 -67 64 -16 3 -31 8 -33 12 -4 6 7 83 19 139 5 22 8 22 150 22 109 0
145 -3 145 -12 0 -7 -6 -51 -14 -98 -8 -47 -23 -130 -32 -185 -9 -55 -18 -136
-20 -180 -2 -44 -3 -83 -4 -86 0 -4 -13 -12 -30 -19 -22 -9 -37 -9 -61 -1 -18
6 -73 11 -123 11 -223 0 -369 109 -441 329 -14 42 -17 76 -13 157 4 94 8 110
42 178 42 86 108 152 198 197 85 43 115 47 303 46 l170 -2 3 -87z m256 -165
c5 -18 33 -137 56 -243 22 -98 23 -97 109 82 91 188 87 185 193 174 34 -4 64
-8 65 -10 1 -1 -55 -121 -126 -267 -70 -145 -167 -344 -214 -441 l-86 -178
-80 0 c-44 0 -83 4 -86 10 -3 5 19 66 49 135 31 69 56 138 56 153 0 15 -25
150 -55 299 -30 150 -55 279 -55 287 0 13 15 16 84 16 72 0 85 -3 90 -17z
m1150 -7 c58 -18 111 -57 132 -98 19 -37 17 -81 -16 -288 -12 -74 -25 -164
-31 -200 -9 -64 -22 -84 -47 -75 -8 3 -43 5 -79 5 l-65 0 6 38 c27 177 40 258
51 327 13 80 8 121 -18 137 -7 4 -33 8 -59 8 -55 0 -51 6 -73 -135 -8 -55 -24
-158 -35 -229 -11 -71 -20 -133 -20 -137 0 -5 -40 -9 -90 -9 -49 0 -90 4 -90
8 0 4 13 93 29 198 16 104 33 215 36 247 l7 58 -73 -3 -73 -3 -23 -145 c-13
-80 -30 -189 -38 -244 -9 -54 -18 -102 -21 -107 -3 -5 -43 -9 -90 -9 -95 0
-92 -3 -75 87 6 26 17 95 26 153 8 58 27 176 40 262 14 86 25 159 25 162 0 4
139 6 308 6 238 0 320 -3 356 -14z"/>
<path d="M2927 3208 c-10 -40 -47 -285 -47 -312 l0 -26 150 0 c112 0 160 4
187 15 117 49 158 228 71 312 l-29 28 -163 3 -163 4 -6 -24z"/>
<path d="M2810 2446 c-5 -15 -10 -38 -10 -51 0 -13 -9 -78 -21 -146 -12 -74
-16 -126 -11 -131 5 -5 93 -8 199 -6 l190 3 37 29 c73 56 106 176 70 253 -29
60 -43 64 -253 70 l-190 6 -11 -27z"/>
<path d="M4514 3213 c-12 -8 -66 -332 -58 -345 3 -5 75 -8 160 -8 168 0 187 5
236 57 75 78 77 229 5 276 -24 16 -324 33 -343 20z"/>
<path d="M4393 2449 c-10 -13 -53 -277 -53 -326 l0 -23 188 0 c185 0 189 0
228 26 22 14 50 40 61 57 52 76 48 194 -9 242 -28 24 -36 25 -146 25 -64 0
-149 3 -187 6 -53 5 -73 3 -82 -7z"/>
<path d="M7812 3230 c-44 -27 -72 -76 -72 -126 0 -22 3 -44 6 -47 9 -9 131 56
177 94 20 17 37 39 37 49 0 47 -89 66 -148 30z"/>
</g>
</svg>
